#!OML:ASF E:\Steps\Project 1\Capture day 1\Session 2\Subject.ASF
:FULLY-SPECIFIED
:DEGREES
429
root 10.1912 16.1435 18.9996 -2.59739 -85.5472 29.7351
lowerback -22.1413 -1.12607 -4.3405
upperback -2.99306 -0.589912 -0.699964
thorax 9.12222 -0.510853 1.52514
lowerneck -0.548392 -1.12628 1.00213
upperneck -12.892 -1.43226 2.99889
head -4.09915 -0.999834 0.880212
rclavicle -6.85807e-015 1.0138e-014
rhumerus -30.9606 -8.77388 -86.2196
rradius 28.8856
rwrist 7.44124
rhand -11.3665 -52.027
rfingers 7.12502
rthumb 14.6674 -81.4882
lclavicle -6.85807e-015 1.0138e-014
lhumerus -30.5138 -7.71001 89.3933
lradius 23.0477
lwrist -2.82048
lhand -25.5698 -12.6461
lfingers 7.12502
lthumb 0.961269 17.3314
rfemur -38.7477 7.89399 15.1371
rtibia 28.2797
rfoot -26.8076 -14.1207
rtoes -30.5486
lfemur -39.7974 -13.3107 -15.8823
ltibia 28.9763
lfoot -15.8305 6.7912
ltoes -30.9946
430
root 10.1851 16.1661 19.0171 -1.57748 -85.7728 28.6343
lowerback -22.3693 -1.0509 -4.03019
upperback -2.96821 -0.551278 -0.731605
thorax 9.26738 -0.484438 1.32201
lowerneck -0.624611 -1.05351 1.247
upperneck -12.8842 -1.34313 2.87793
head -4.08497 -0.962457 0.793104
rclavicle -8.84592e-015 -9.34288e-015
rhumerus -30.7566 -11.5369 -85.4337
rradius 28.1851
rwrist 9.53493
rhand -11.1207 -52.2534
rfingers 7.12502
rthumb 14.9042 -81.6972
lclavicle -8.84592e-015 -9.34288e-015
lhumerus -30.3441 -8.38002 89.5341
lradius 23.1353
lwrist -2.19946
lhand -25.2424 -12.0254
lfingers 7.12502
lthumb 1.27742 17.9505
rfemur -38.223 7.9773 15.2638
rtibia 27.4223
rfoot -26.3846 -14.0217
rtoes -30.9612
lfemur -39.1418 -13.5328 -15.6786
ltibia 27.9465
lfoot -15.3476 7.13743
ltoes -30.8648
431
root 10.1795 16.1884 19.0277 -2.51297 -86.0148 29.4705
lowerback -22.5256 -1.12516 -4.05016
upperback -2.96724 -0.651213 -0.594841
thorax 9.35924 -0.537219 1.45229
lowerneck -0.483424 -0.953322 0.41843
upperneck -12.982 -1.17266 3.42297
head -4.14332 -0.865489 1.11851
rclavicle 5.06901e-015 3.00165e-014
rhumerus -30.2656 -10.709 -85.43
rradius 27.0497
rwrist 8.21056
rhand -11.0782 -52.5757
rfingers 7.12502
rthumb 14.9451 -82.0165
lclavicle 5.06901e-015 3.00165e-014
lhumerus -30.1361 -8.08346 89.559
lradius 22.9467
lwrist -2.36649
lhand -24.8763 -12.4363
lfingers 7.12502
lthumb 1.63108 17.5372
rfemur -37.614 8.33702 15.1493
rtibia 26.4039
rfoot -25.9473 -14.0525
rtoes -30.7489
lfemur -38.4331 -13.5726 -15.6825
ltibia 26.8973
lfoot -14.931 7.31968
ltoes -30.3514
432
root 10.1648 16.2188 19.0425 -5.70019 -86.278 32.1663
lowerback -22.3575 -1.14386 -4.18183
upperback -2.87268 -0.652091 -0.503013
thorax 9.37697 -0.54266 1.62961
lowerneck -0.310949 -1.0371 -0.0767055
upperneck -12.96 -1.25487 3.82469
head -4.16431 -0.899877 1.34566
rclavicle 9.0447e-015 2.26615e-014
rhumerus -30.0372 -12.0282 -84.7237
rradius 26.2298
rwrist 8.75787
rhand -11.1665 -52.8669
rfingers 7.12502
rthumb 14.8601 -82.314
lclavicle 9.0447e-015 2.26615e-014
lhumerus -29.983 -7.82586 89.6178
lradius 22.7395
lwrist -2.62695
lhand -24.6543 -12.4681
lfingers 7.12502
lthumb 1.84549 17.5036
rfemur -36.4375 8.75649 14.9535
rtibia 25.1635
rfoot -25.4576 -14.0779
rtoes -30.3388
lfemur -37.1585 -13.6488 -15.9605
ltibia 25.6845
lfoot -14.4889 7.67023
ltoes -30.9713
433
root 10.161 16.2396 19.0543 -7.16091 -86.4498 33.5287
lowerback -22.3933 -1.11856 -4.19198
upperback -2.94558 -0.621048 -0.507048
thorax 9.31292 -0.528176 1.64038
lowerneck -0.148769 -0.911277 -0.0199095
upperneck -12.9402 -1.08443 3.75454
head -4.19312 -0.81445 1.3079
rclavicle -3.18055e-015 1.07344e-014
rhumerus -29.859 -13.8057 -84.0179
rradius 25.2724
rwrist 9.69658
rhand -11.3014 -53.2033
rfingers 7.12502
rthumb 14.7301 -82.66
lclavicle -3.18055e-015 1.07344e-014
lhumerus -30.0167 -8.28028 89.7477
lradius 22.7981
lwrist -2.36641
lhand -24.6054 -11.9277
lfingers 7.12502
lthumb 1.89269 18.0436
rfemur -35.8613 8.86709 14.8997
rtibia 24.2372
rfoot -25.0203 -14.1735
rtoes -30.9149
lfemur -36.536 -13.6628 -16.0363
ltibia 24.7409
lfoot -14.0769 7.88579
ltoes -31.5385
434
root 10.1581 16.2556 19.0642 -7.97327 -86.6202 34.4237
lowerback -22.5412 -1.07985 -4.1916
upperback -3.10579 -0.578835 -0.499604
thorax 9.21067 -0.508918 1.66061
lowerneck 0.0341285 -0.952602 0.341154
upperneck -12.8267 -1.15482 3.41806
head -4.18814 -0.847757 1.13326
rclavicle 7.95139e-015 -5.76476e-015
rhumerus -29.8109 -15.4325 -83.3338
rradius 24.3934
rwrist 10.4955
rhand -11.5764 -53.4374
rfingers 7.12502
rthumb 14.4652 -82.9132
lclavicle 7.95139e-015 -5.76476e-015
lhumerus -30.1617 -8.84937 89.9313
lradius 22.9365
lwrist -2.09214
lhand -24.6181 -11.6543
lfingers 7.12502
lthumb 1.88043 18.3172
rfemur -35.4092 9.57704 14.6694
rtibia 23.2076
rfoot -24.6319 -14.7116
rtoes -30.9116
lfemur -36.1598 -13.5656 -16.03
ltibia 23.8681
lfoot -13.7633 7.93754
ltoes -31.0787
435
root 10.1515 16.2712 19.0748 -10.7221 -86.7734 37.2635
lowerback -22.7799 -1.05437 -4.30045
upperback -3.23242 -0.519479 -0.511556
thorax 9.19348 -0.486719 1.72611
lowerneck 0.142663 -0.998128 0.356462
upperneck -12.7063 -1.21406 3.38466
head -4.16487 -0.872716 1.12056
rclavicle -7.62836e-015 -5.96354e-016
rhumerus -29.7714 -16.5673 -82.8019
rradius 23.6262
rwrist 10.777
rhand -12.0343 -53.9165
rfingers 7.12502
rthumb 14.0239 -83.4234
lclavicle -7.62836e-015 -5.96354e-016
lhumerus -29.9609 -8.45334 89.7698
lradius 22.5436
lwrist -2.80558
lhand -24.3154 -11.9694
lfingers 7.12502
lthumb 2.1728 17.9993
rfemur -35.2865 9.42837 14.5615
rtibia 22.7021
rfoot -24.364 -14.3909
rtoes -30.7736
lfemur -35.7436 -13.3703 -16.2006
ltibia 22.98
lfoot -13.4834 7.97603
ltoes -30.4873
436
root 10.146 16.2852 19.0857 -13.7912 -86.8701 40.4137
lowerback -23.0564 -1.07933 -4.42155
upperback -3.3129 -0.519668 -0.500812
thorax 9.25136 -0.494724 1.80519
lowerneck 0.018767 -0.848634 0.761798
upperneck -12.4555 -1.03173 3.06794
head -4.05588 -0.780828 0.931185
rclavicle 3.45388e-015 9.14409e-015
rhumerus -30.094 -20.5114 -81.2291
rradius 23.1655
rwrist 14.2627
rhand -11.453 -53.789
rfingers 7.12502
rthumb 14.584 -83.2563
lclavicle 3.45388e-015 9.14409e-015
lhumerus -29.4615 -7.3509 89.4037
lradius 21.7777
lwrist -4.05591
lhand -23.8711 -12.3447
lfingers 7.12502
lthumb 2.60184 17.6192
rfemur -34.9424 9.63619 14.3076
rtibia 21.8075
rfoot -23.8736 -14.4437
rtoes -30.875
lfemur -35.3538 -13.2509 -16.4113
ltibia 22.1471
lfoot -13.0295 8.22891
ltoes -31.5968
437
root 10.1407 16.2992 19.0963 -16.3004 -86.9368 42.9784
lowerback -23.3229 -1.16036 -4.52957
upperback -3.3874 -0.599884 -0.450472
thorax 9.31584 -0.540966 1.89598
lowerneck 0.0932203 -0.992977 0.10148
upperneck -12.4847 -1.2025 3.52735
head -4.07407 -0.855897 1.20845
rclavicle 2.28602e-015 -1.03368e-014
rhumerus -29.6654 -18.914 -81.5249
rradius 22.3159
rwrist 12.0095
rhand -11.6038 -53.6352
rfingers 7.12502
rthumb 14.4388 -83.1129
lclavicle 2.28602e-015 -1.03368e-014
lhumerus -29.1612 -6.55996 89.2092
lradius 21.297
lwrist -4.83279
lhand -23.7279 -12.4508
lfingers 7.12502
lthumb 2.74013 17.5114
rfemur -34.712 9.67779 14.1556
rtibia 21.31
rfoot -23.5348 -14.3156
rtoes -30.5314
lfemur -34.9817 -13.2023 -16.5552
ltibia 21.3644
lfoot -12.6306 8.37555
ltoes -31.6359
438
root 10.1341 16.3126 19.1046 -17.6047 -87.0631 44.312
lowerback -23.5986 -1.23536 -4.54111
upperback -3.43693 -0.692586 -0.410066
thorax 9.41312 -0.59012 1.91604
lowerneck 0.0214859 -0.786316 0.887159
upperneck -12.2847 -0.964102 2.85369
head -3.99697 -0.739464 0.832892
rclavicle 5.11871e-015 -1.03368e-014
rhumerus -30.0099 -23.8236 -79.6101
rradius 21.5028
rwrist 16.496
rhand -11.4346 -53.1285
rfingers 7.12502
rthumb 14.6018 -82.5945
lclavicle 5.11871e-015 -1.03368e-014
lhumerus -28.9864 -6.09119 89.0216
lradius 21.0759
lwrist -5.19031
lhand -23.782 -12.3509
lfingers 7.12502
lthumb 2.68792 17.6119
rfemur -34.3853 9.81282 14.0911
rtibia 20.5967
rfoot -23.0544 -14.1084
rtoes -29.7442
lfemur -34.5693 -13.0977 -16.5563
ltibia 20.587
lfoot -12.4103 8.29426
ltoes -29.7095
